<?xml version="1.0" standalone="no"?>
<!DOCTYPE svg PUBLIC "-//W3C//DTD SVG 20010904//EN"
 "http://www.w3.org/TR/2001/REC-SVG-20010904/DTD/svg10.dtd">
<svg version="1.0" xmlns="http://www.w3.org/2000/svg"
 width="1024.000000pt" height="1024.000000pt" viewBox="0 0 1024.000000 1024.000000"
 preserveAspectRatio="xMidYMid meet">
<metadata>
Created by potrace 1.14, written by Peter Selinger 2001-2017
</metadata>
<g transform="translate(0.000000,1024.000000) scale(0.100000,-0.100000)"
fill="#000000" stroke="none">
<path d="M4835 10214 c-22 -2 -98 -9 -170 -14 -1516 -124 -2930 -965 -3792
-2255 -494 -738 -780 -1585 -844 -2490 -15 -214 -7 -655 16 -865 110 -1026
505 -1955 1174 -2760 124 -150 464 -489 616 -616 775 -644 1672 -1034 2660
-1158 292 -37 711 -47 996 -26 1090 84 2068 482 2919 1189 158 131 502 478
631 636 289 354 487 662 670 1040 431 890 593 1877 469 2865 -271 2166 -1899
3921 -4045 4360 -129 26 -337 57 -505 76 -136 14 -700 27 -795 18z m-35 -2699
c323 -9 704 -43 1075 -96 1024 -146 1933 -435 2653 -842 113 -63 156 -94 202
-143 97 -105 137 -215 127 -359 -15 -240 -202 -425 -447 -442 -113 -8 -179 13
-365 117 -651 362 -1461 609 -2410 734 -425 57 -789 80 -1260 80 -786 0 -1447
-80 -2065 -249 -128 -35 -182 -45 -241 -45 -412 0 -628 485 -354 796 78 89
153 124 410 192 563 150 1236 242 1920 262 253 7 349 6 755 -5z m5 -1765
c1036 -77 1986 -332 2798 -753 225 -116 374 -207 425 -258 89 -89 133 -224
112 -342 -34 -186 -179 -320 -361 -334 -105 -8 -165 12 -326 105 -825 477
-1872 757 -2961 791 -724 22 -1371 -54 -2006 -236 -175 -50 -321 -19 -432 91
-27 28 -63 78 -80 111 -27 55 -29 69 -29 170 0 100 3 115 28 166 60 124 147
189 317 238 498 142 1035 231 1585 260 200 11 730 6 930 -9z m-35 -1660 c673
-47 1248 -174 1815 -402 310 -124 744 -354 832 -440 62 -61 88 -125 87 -223 0
-64 -4 -90 -24 -130 -56 -115 -168 -185 -293 -185 -78 1 -110 13 -238 87 -517
299 -1044 486 -1654 587 -360 60 -676 81 -1100 73 -499 -10 -976 -66 -1471
-173 -223 -48 -291 -53 -369 -23 -80 30 -154 104 -183 182 -58 155 5 323 148
394 166 83 1069 227 1605 256 148 8 714 6 845 -3z"/>
</g>
</svg>
